name Walk5.mot
datacolumns 19
datarows 25
range 2.20600000 2.23000000
endheader

                time	   L_ground_force_vx	   L_ground_force_vy	   L_ground_force_vz	   L_ground_force_px	   L_ground_force_py	   L_ground_force_pz	   R_ground_force_vx	   R_ground_force_vy	   R_ground_force_vz	   R_ground_force_px	   R_ground_force_py	   R_ground_force_pz	   L_ground_torque_x	   L_ground_torque_y	   L_ground_torque_z	   R_ground_torque_x	   R_ground_torque_y	   R_ground_torque_z	
          2.20600000	          0.00000000	          0.00000000	          0.00000000	          0.00000000	          0.00000000	          0.00000000	          0.00000000	          0.00000000	          0.00000000	          0.00000000	          0.00000000	          0.00000000	          0.00000000	          0.00000000	          0.00000000	          0.00000000	          0.00000000	          0.00000000	
          2.20700000	          0.00000000	          0.00000000	          0.00000000	          0.00000000	          0.00000000	          0.00000000	          0.00000000	          0.00000000	          0.00000000	          0.00000000	          0.00000000	          0.00000000	          0.00000000	          0.00000000	          0.00000000	          0.00000000	          0.00000000	          0.00000000	
          2.20800000	          0.00000000	          0.00000000	          0.00000000	          0.00000000	          0.00000000	          0.00000000	          0.00000000	          0.00000000	          0.00000000	          0.00000000	          0.00000000	          0.00000000	          0.00000000	          0.00000000	          0.00000000	          0.00000000	          0.00000000	          0.00000000	
          2.20900000	          0.00000000	          0.00000000	          0.00000000	          0.00000000	          0.00000000	          0.00000000	          0.00000000	          0.00000000	          0.00000000	          0.00000000	          0.00000000	          0.00000000	          0.00000000	          0.00000000	          0.00000000	          0.00000000	          0.00000000	          0.00000000	
          2.21000000	          0.43415067	         17.84324901	         -5.62829139	         -0.35229944	          0.00000000	         -0.02548930	          0.00000000	          0.00000000	          0.00000000	          0.00000000	          0.00000000	          0.00000000	          0.00000000	         -0.12028624	          0.00000000	          0.00000000	          0.00000000	          0.00000000	
          2.21100000	          0.76611601	         27.72037173	         -7.91259479	         -0.35166992	          0.00000000	         -0.02503547	          0.00000000	          0.00000000	          0.00000000	          0.00000000	          0.00000000	          0.00000000	          0.00000000	         -0.13954920	          0.00000000	          0.00000000	          0.00000000	          0.00000000	
          2.21200000	          1.22706895	         39.94257326	        -10.04917140	         -0.35151913	          0.00000000	         -0.02448311	          0.00000000	          0.00000000	          0.00000000	          0.00000000	          0.00000000	          0.00000000	          0.00000000	         -0.13066884	          0.00000000	          0.00000000	          0.00000000	          0.00000000	
          2.21300000	          1.87142218	         55.44937544	        -11.85801212	         -0.35165538	          0.00000000	         -0.02390676	          0.00000000	          0.00000000	          0.00000000	          0.00000000	          0.00000000	          0.00000000	          0.00000000	         -0.09442187	          0.00000000	          0.00000000	          0.00000000	          0.00000000	
          2.21400000	          2.82054990	         75.71404488	        -13.24646144	         -0.35177706	          0.00000000	         -0.02345384	          0.00000000	          0.00000000	          0.00000000	          0.00000000	          0.00000000	          0.00000000	          0.00000000	         -0.04196429	          0.00000000	          0.00000000	          0.00000000	          0.00000000	
          2.21500000	          4.28215690	        102.20217550	        -14.15627079	         -0.35170082	          0.00000000	         -0.02314297	          0.00000000	          0.00000000	          0.00000000	          0.00000000	          0.00000000	          0.00000000	          0.00000000	          0.01504186	          0.00000000	          0.00000000	          0.00000000	          0.00000000	
          2.21600000	          6.51281701	        135.77266855	        -14.55529714	         -0.35140915	          0.00000000	         -0.02294367	          0.00000000	          0.00000000	          0.00000000	          0.00000000	          0.00000000	          0.00000000	          0.00000000	          0.06920207	          0.00000000	          0.00000000	          0.00000000	          0.00000000	
          2.21700000	          9.71710059	        176.09606897	        -14.48395500	         -0.35096790	          0.00000000	         -0.02286936	          0.00000000	          0.00000000	          0.00000000	          0.00000000	          0.00000000	          0.00000000	          0.00000000	          0.11653623	          0.00000000	          0.00000000	          0.00000000	          0.00000000	
          2.21800000	         13.93125938	        221.30902973	        -14.12435569	         -0.35045612	          0.00000000	         -0.02288496	          0.00000000	          0.00000000	          0.00000000	          0.00000000	          0.00000000	          0.00000000	          0.00000000	          0.15549696	          0.00000000	          0.00000000	          0.00000000	          0.00000000	
          2.21900000	         18.94543696	        268.17300110	        -13.82374160	         -0.34993576	          0.00000000	         -0.02288101	          0.00000000	          0.00000000	          0.00000000	          0.00000000	          0.00000000	          0.00000000	          0.00000000	          0.18725088	          0.00000000	          0.00000000	          0.00000000	          0.00000000	
          2.22000000	         24.29297873	        312.72584789	        -14.03982530	         -0.34943732	          0.00000000	         -0.02276183	          0.00000000	          0.00000000	          0.00000000	          0.00000000	          0.00000000	          0.00000000	          0.00000000	          0.21441501	          0.00000000	          0.00000000	          0.00000000	          0.00000000	
          2.22100000	         29.31124723	        351.16100312	        -15.22472051	         -0.34896140	          0.00000000	         -0.02250320	          0.00000000	          0.00000000	          0.00000000	          0.00000000	          0.00000000	          0.00000000	          0.00000000	          0.23826153	          0.00000000	          0.00000000	          0.00000000	          0.00000000	
          2.22200000	         33.27154426	        380.63513773	        -17.68462045	         -0.34849679	          0.00000000	         -0.02213944	          0.00000000	          0.00000000	          0.00000000	          0.00000000	          0.00000000	          0.00000000	          0.00000000	          0.25757923	          0.00000000	          0.00000000	          0.00000000	          0.00000000	
          2.22300000	         35.55932991	        399.75739525	        -21.47075434	         -0.34804003	          0.00000000	         -0.02171508	          0.00000000	          0.00000000	          0.00000000	          0.00000000	          0.00000000	          0.00000000	          0.00000000	          0.27084600	          0.00000000	          0.00000000	          0.00000000	          0.00000000	
          2.22400000	         35.83375454	        408.67906935	        -26.35635867	         -0.34759886	          0.00000000	         -0.02124857	          0.00000000	          0.00000000	          0.00000000	          0.00000000	          0.00000000	          0.00000000	          0.00000000	          0.27880485	          0.00000000	          0.00000000	          0.00000000	          0.00000000	
          2.22500000	         34.08627781	        408.85814871	        -31.90521758	         -0.34717740	          0.00000000	         -0.02074261	          0.00000000	          0.00000000	          0.00000000	          0.00000000	          0.00000000	          0.00000000	          0.00000000	          0.28405313	          0.00000000	          0.00000000	          0.00000000	          0.00000000	
          2.22600000	         30.58758279	        402.61568836	        -37.58723044	         -0.34676443	          0.00000000	         -0.02021900	          0.00000000	          0.00000000	          0.00000000	          0.00000000	          0.00000000	          0.00000000	          0.00000000	          0.28982866	          0.00000000	          0.00000000	          0.00000000	          0.00000000	
          2.22700000	         25.77113458	        392.61283698	        -42.89292816	         -0.34633764	          0.00000000	         -0.01973274	          0.00000000	          0.00000000	          0.00000000	          0.00000000	          0.00000000	          0.00000000	          0.00000000	          0.29997844	          0.00000000	          0.00000000	          0.00000000	          0.00000000	
          2.22800000	         20.10477016	        381.38463876	        -47.42044398	         -0.34587414	          0.00000000	         -0.01935395	          0.00000000	          0.00000000	          0.00000000	          0.00000000	          0.00000000	          0.00000000	          0.00000000	          0.31806415	          0.00000000	          0.00000000	          0.00000000	          0.00000000	
          2.22900000	         13.98901290	        371.03747133	        -50.91844779	         -0.34535951	          0.00000000	         -0.01912038	          0.00000000	          0.00000000	          0.00000000	          0.00000000	          0.00000000	          0.00000000	          0.00000000	          0.34511966	          0.00000000	          0.00000000	          0.00000000	          0.00000000	
          2.23000000	          7.70467964	        363.11585876	        -53.28216404	         -0.34480031	          0.00000000	         -0.01899407	          0.00000000	          0.00000000	          0.00000000	          0.00000000	          0.00000000	          0.00000000	          0.00000000	          0.38005869	          0.00000000	          0.00000000	          0.00000000	          0.00000000	
